<?xml version="1.0" encoding="utf-8"?>
<!-- Generator: Adobe Illustrator 16.0.0, SVG Export Plug-In . SVG Version: 6.00 Build 0)  -->
<!DOCTYPE svg PUBLIC "-//W3C//DTD SVG 1.1//EN" "http://www.w3.org/Graphics/SVG/1.1/DTD/svg11.dtd">
<svg version="1.1" id="Capa_1" xmlns="http://www.w3.org/2000/svg" xmlns:xlink="http://www.w3.org/1999/xlink" x="0px" y="0px"
	 width="192px" height="48px" viewBox="0 0 192 48" enable-background="new 0 0 192 48" xml:space="preserve">
<g display="none">
</g>
<g>
</g>
<rect x="144" display="none" fill="#211915" width="24" height="24"/>
<path fill="#FF6319" d="M19.429,22.863H4.454c-0.884,0-1.604-0.719-1.604-1.604v-8.557H1.071c-0.451,0-0.844-0.273-1.002-0.695
	c-0.158-0.422-0.041-0.886,0.3-1.181l10.849-9.434c0.407-0.354,1.064-0.335,1.45,0.042l3.017,2.951v-1.31
	c0-0.59,0.48-1.07,1.069-1.07h2.674c0.589,0,1.069,0.48,1.069,1.07v4.681l3.18,3.111c0.312,0.306,0.408,0.764,0.243,1.168
	c-0.165,0.405-0.554,0.666-0.99,0.666h-1.897v8.557C21.033,22.144,20.313,22.863,19.429,22.863z M3.385,11.632
	c0.295,0,0.535,0.239,0.535,0.535v9.092c0,0.294,0.24,0.535,0.535,0.535h14.975c0.295,0,0.535-0.24,0.535-0.535v-9.092
	c0-0.295,0.239-0.535,0.535-0.535h2.432l-3.341-3.268c-0.103-0.101-0.161-0.239-0.161-0.382V3.076h-2.674v2.581
	c0,0.215-0.129,0.409-0.327,0.493C16.229,6.233,16,6.19,15.846,6.039l-3.926-3.84L1.071,11.632H3.385z"/>
<g>
	<path fill="#FF6319" d="M36,24c-6.617,0-12-5.383-12-12S29.383,0,36,0s12,5.383,12,12S42.617,24,36,24z M36,1.067
		c-6.028,0-10.934,4.904-10.934,10.933S29.972,22.933,36,22.933S46.934,18.029,46.934,12S42.028,1.067,36,1.067z"/>
	<path fill="#FF6319" d="M36,2.933c-0.139,0-0.277-0.059-0.379-0.154c-0.097-0.102-0.154-0.235-0.154-0.379
		c0-0.144,0.058-0.277,0.154-0.378c0.203-0.197,0.56-0.197,0.758,0c0.096,0.101,0.154,0.24,0.154,0.378
		c0,0.144-0.059,0.277-0.154,0.379C36.277,2.875,36.139,2.933,36,2.933z"/>
	<path fill="#FF6319" d="M36,22.133c-0.139,0-0.277-0.059-0.379-0.155c-0.097-0.102-0.154-0.24-0.154-0.378s0.058-0.278,0.154-0.379
		c0.203-0.197,0.555-0.197,0.758,0c0.096,0.101,0.154,0.234,0.154,0.379c0,0.139-0.059,0.277-0.154,0.378
		C36.277,22.075,36.139,22.133,36,22.133z"/>
	<path fill="#FF6319" d="M45.6,12.533c-0.139,0-0.276-0.059-0.379-0.155c-0.096-0.101-0.154-0.24-0.154-0.378
		s0.059-0.278,0.154-0.378c0.203-0.198,0.561-0.198,0.758,0c0.096,0.101,0.154,0.24,0.154,0.378s-0.059,0.277-0.154,0.378
		C45.877,12.475,45.738,12.533,45.6,12.533z"/>
	<path fill="#FF6319" d="M26.4,12.533c-0.139,0-0.277-0.059-0.379-0.155c-0.097-0.101-0.154-0.24-0.154-0.378
		s0.058-0.278,0.154-0.378c0.197-0.198,0.56-0.198,0.758,0c0.096,0.101,0.154,0.24,0.154,0.378s-0.059,0.277-0.154,0.378
		C26.677,12.475,26.539,12.533,26.4,12.533z"/>
	<path fill="#FF6319" d="M42.789,5.744c-0.144,0-0.277-0.053-0.379-0.154c-0.102-0.102-0.154-0.24-0.154-0.379
		c0-0.139,0.053-0.277,0.154-0.379c0.197-0.191,0.555-0.197,0.758,0c0.096,0.102,0.154,0.24,0.154,0.379
		c0,0.139-0.059,0.277-0.154,0.379C43.066,5.69,42.928,5.744,42.789,5.744z"/>
	<path fill="#FF6319" d="M29.211,19.322c-0.139,0-0.277-0.058-0.379-0.154c-0.096-0.101-0.154-0.24-0.154-0.379
		c0-0.144,0.059-0.277,0.154-0.378c0.203-0.197,0.56-0.197,0.758,0c0.102,0.102,0.154,0.234,0.154,0.378
		c0,0.139-0.053,0.278-0.154,0.374C29.488,19.264,29.354,19.322,29.211,19.322z"/>
	<path fill="#FF6319" d="M42.789,19.322c-0.139,0-0.277-0.058-0.379-0.154c-0.102-0.101-0.154-0.24-0.154-0.379
		c0-0.139,0.053-0.277,0.154-0.378c0.197-0.197,0.555-0.197,0.752,0c0.102,0.102,0.16,0.24,0.16,0.378
		c0,0.139-0.059,0.278-0.154,0.379C43.066,19.264,42.928,19.322,42.789,19.322z"/>
	<path fill="#FF6319" d="M29.211,5.744c-0.139,0-0.277-0.053-0.379-0.154c-0.096-0.102-0.154-0.24-0.154-0.379
		c0-0.139,0.059-0.277,0.154-0.379c0.203-0.197,0.555-0.197,0.758,0c0.102,0.102,0.154,0.24,0.154,0.379
		c0,0.139-0.053,0.277-0.154,0.379C29.488,5.69,29.349,5.744,29.211,5.744z"/>
	<path fill="#FF6319" d="M41.334,17.867c-0.138,0-0.273-0.052-0.378-0.156l-5.467-5.333c-0.1-0.1-0.289-0.236-0.289-0.377V6.667
		c0-0.295,0.238-0.533,0.533-0.533c0.294,0,0.533,0.238,0.533,0.533v5.113l5.311,5.177c0.208,0.208,0.274,0.545,0.067,0.754
		C41.539,17.815,41.47,17.867,41.334,17.867z"/>
</g>
<g>
	<g>
		<path fill="#FF6319" d="M70.522,1.478c-0.265,0-0.479,0.214-0.479,0.479v18.652c0,0.791-0.644,1.435-1.435,1.435
			c-0.792,0-1.435-0.644-1.435-1.435V2.913C67.174,1.858,66.316,1,65.261,1H49.478C49.214,1,49,1.214,49,1.478v19.131
			C49,21.927,50.073,23,51.391,23h17.218C69.927,23,71,21.927,71,20.609V1.957C71,1.692,70.786,1.478,70.522,1.478z M51.391,22.043
			c-0.791,0-1.435-0.644-1.435-1.435V1.957h15.304c0.527,0,0.957,0.429,0.957,0.957v17.696c0,0.538,0.179,1.035,0.479,1.435H51.391z
			"/>
		<path fill="#FF6319" d="M68.609,21.087c0.264,0,0.478-0.214,0.478-0.478V1.957c0-0.264-0.214-0.479-0.478-0.479
			c-0.265,0-0.479,0.214-0.479,0.479v18.652C68.13,20.873,68.344,21.087,68.609,21.087z"/>
	</g>
	<path fill="#FF6319" d="M51.87,10.087h5.739c0.264,0,0.478-0.214,0.478-0.478V3.87c0-0.265-0.214-0.479-0.478-0.479H51.87
		c-0.265,0-0.479,0.214-0.479,0.479v5.739C51.391,9.873,51.605,10.087,51.87,10.087z M52.348,4.348h4.783V9.13h-4.783V4.348z"/>
	<path fill="#FF6319" d="M63.826,3.391h-4.304c-0.265,0-0.479,0.214-0.479,0.479c0,0.264,0.214,0.478,0.479,0.478h4.304
		c0.264,0,0.478-0.214,0.478-0.478C64.304,3.605,64.09,3.391,63.826,3.391z"/>
	<path fill="#FF6319" d="M63.826,5.304h-4.304c-0.265,0-0.479,0.214-0.479,0.479c0,0.264,0.214,0.478,0.479,0.478h4.304
		c0.264,0,0.478-0.214,0.478-0.478C64.304,5.518,64.09,5.304,63.826,5.304z"/>
	<path fill="#FF6319" d="M63.826,7.217h-4.304c-0.265,0-0.479,0.214-0.479,0.479c0,0.264,0.214,0.478,0.479,0.478h4.304
		c0.264,0,0.478-0.214,0.478-0.478C64.304,7.431,64.09,7.217,63.826,7.217z"/>
	<path fill="#FF6319" d="M63.826,9.13h-4.304c-0.265,0-0.479,0.214-0.479,0.479c0,0.264,0.214,0.478,0.479,0.478h4.304
		c0.264,0,0.478-0.214,0.478-0.478C64.304,9.344,64.09,9.13,63.826,9.13z"/>
	<path fill="#FF6319" d="M63.826,12H51.87c-0.265,0-0.479,0.214-0.479,0.478c0,0.265,0.214,0.479,0.479,0.479h11.957
		c0.264,0,0.478-0.214,0.478-0.479C64.304,12.214,64.09,12,63.826,12z"/>
	<path fill="#FF6319" d="M63.826,13.913H51.87c-0.265,0-0.479,0.214-0.479,0.478c0,0.265,0.214,0.479,0.479,0.479h11.957
		c0.264,0,0.478-0.214,0.478-0.479C64.304,14.127,64.09,13.913,63.826,13.913z"/>
	<path fill="#FF6319" d="M57.609,15.826H51.87c-0.265,0-0.479,0.214-0.479,0.478c0,0.265,0.214,0.479,0.479,0.479h5.739
		c0.264,0,0.478-0.214,0.478-0.479C58.087,16.04,57.873,15.826,57.609,15.826z"/>
	<path fill="#FF6319" d="M57.609,17.739H51.87c-0.265,0-0.479,0.214-0.479,0.478c0,0.265,0.214,0.479,0.479,0.479h5.739
		c0.264,0,0.478-0.214,0.478-0.479C58.087,17.953,57.873,17.739,57.609,17.739z"/>
	<path fill="#FF6319" d="M57.609,19.652H51.87c-0.265,0-0.479,0.214-0.479,0.478c0,0.265,0.214,0.479,0.479,0.479h5.739
		c0.264,0,0.478-0.214,0.478-0.479C58.087,19.866,57.873,19.652,57.609,19.652z"/>
	<path fill="#FF6319" d="M63.826,15.826h-4.304c-0.265,0-0.479,0.214-0.479,0.478v3.826c0,0.265,0.214,0.479,0.479,0.479h4.304
		c0.264,0,0.478-0.214,0.478-0.479v-3.826C64.304,16.04,64.09,15.826,63.826,15.826z M63.348,19.652H60v-2.87h3.348V19.652z"/>
</g>
<g>
	<path fill="#FF6319" d="M84,1c-6.065,0-11,4.935-11,11s4.935,11,11,11c6.065,0,11-4.935,11-11S90.065,1,84,1z M84,22.043
		c-5.538,0-10.043-4.505-10.043-10.043S78.462,1.957,84,1.957c5.538,0,10.043,4.505,10.043,10.043S89.538,22.043,84,22.043z"/>
	<path fill="#FF6319" d="M79.696,10.326c1.187,0,2.152-0.965,2.152-2.152c0-1.187-0.965-2.152-2.152-2.152
		c-1.188,0-2.152,0.965-2.152,2.152C77.543,9.361,78.508,10.326,79.696,10.326z M79.696,6.978c0.659,0,1.195,0.537,1.195,1.196
		c0,0.66-0.536,1.196-1.195,1.196c-0.66,0-1.196-0.536-1.196-1.196C78.5,7.515,79.036,6.978,79.696,6.978z"/>
	<path fill="#FF6319" d="M88.304,6.022c-1.187,0-2.152,0.965-2.152,2.152c0,1.187,0.965,2.152,2.152,2.152s2.152-0.965,2.152-2.152
		C90.457,6.987,89.491,6.022,88.304,6.022z M88.304,9.37c-0.659,0-1.195-0.536-1.195-1.196c0-0.659,0.536-1.196,1.195-1.196
		c0.66,0,1.196,0.537,1.196,1.196C89.5,8.833,88.964,9.37,88.304,9.37z"/>
	<path fill="#FF6319" d="M89.739,12.478H78.261c-0.264,0-0.478,0.214-0.478,0.479c0,3.428,2.789,6.217,6.217,6.217
		s6.217-2.789,6.217-6.217C90.217,12.692,90.003,12.478,89.739,12.478z M84,18.217c-2.74,0-4.997-2.105-5.239-4.783h10.479
		C88.997,16.112,86.74,18.217,84,18.217z"/>
</g>
<g>
	<g>
		<path fill="#FF6319" d="M117,2.5H99c-1.103,0-2,0.897-2,2v15c0,1.103,0.897,2,2,2h18c1.103,0,2-0.897,2-2v-15
			C119,3.397,118.103,2.5,117,2.5z M105,18.5v2h-3v-2H105z M106,18.5h3.5v2H106V18.5z M110.5,18.5h3v2h-3V18.5z M98,17.5v-11h20v11
			H98z M110.5,5.5v-2h3v2H110.5z M109.5,5.5H106v-2h3.5V5.5z M105,5.5h-3v-2h3V5.5z M118,4.5v1h-3.5v-2h2.5
			C117.552,3.5,118,3.948,118,4.5z M99,3.5h2v2h-3v-1C98,3.948,98.448,3.5,99,3.5z M98,19.5v-1h3v2h-2
			C98.448,20.5,98,20.052,98,19.5z M117,20.5h-2.5v-2h3.5v1C118,20.052,117.552,20.5,117,20.5z"/>
		<path fill="#FF6319" d="M106.8,8.6c-0.152-0.114-0.354-0.132-0.523-0.047C106.107,8.638,106,8.811,106,9v6
			c0,0.189,0.107,0.362,0.276,0.447c0.071,0.035,0.147,0.053,0.224,0.053c0.106,0,0.212-0.034,0.3-0.1l4-3
			c0.126-0.094,0.2-0.243,0.2-0.4s-0.074-0.306-0.2-0.4L106.8,8.6z M107,14v-4l2.667,2L107,14z"/>
	</g>
</g>
<g>
	<path fill="#FF6319" d="M138.016,16.525c-1.951,0-3.686-0.718-5.386-1.421c-2.594-1.073-5.044-2.086-8.137-0.4l-0.479-0.878
		c3.512-1.915,6.175-0.761,8.872,0.354c2.597,1.074,5.111,2.091,8.111,0.568V4.857c-3,1.427-5.921,0.327-8.509-0.741
		c-2.602-1.072-4.997-2.087-8.09-0.401l-0.447-0.878c3.512-1.914,6.324-0.76,9.028,0.354c2.678,1.104,5.215,2.148,8.531,0.434
		c0.154-0.08,0.219-0.074,0.368,0.017c0.149,0.091,0.119,0.253,0.119,0.427v10.988c0,0.187,0.021,0.358-0.146,0.444
		C140.419,16.244,139.238,16.525,138.016,16.525z"/>
	<path fill="#FF6319" d="M124.249,24h-1.5c-0.276,0-0.75-0.224-0.75-0.5V1.25c0-0.689,0.311-1.25,1-1.25s1,0.561,1,1.25V23.5
		C123.999,23.776,124.525,24,124.249,24z M122.999,23L122.999,23V1.25c0-0.138,0.138-0.25,0-0.25s0,0.112,0,0.25V23z"/>
</g>
<g>
	<path fill="#FF6319" d="M164.131,23H147.87c-0.791,0-1.435-0.644-1.435-1.435V2.435c0-0.791,0.644-1.435,1.435-1.435h11.479
		c0.12,0,0.235,0.045,0.323,0.125l5.674,5.261c0.099,0.09,0.09,0.218,0.09,0.353v14.826C165.435,22.356,164.922,23,164.131,23z
		 M147.87,2c-0.263,0-0.435,0.171-0.435,0.435v19.131c0,0.264,0.171,0.435,0.435,0.435h16.261c0.263,0,0.304-0.171,0.304-0.435
		V6.949L159.162,2H147.87z"/>
	<path fill="#FF6319" d="M164.793,7h-4.571c-0.756,0-1.787-0.417-1.787-1.19V1.601c0-0.258,0.225-0.468,0.478-0.468
		c0.253,0,0.478,0.209,0.478,0.468V5.81c0,0.258,0.58,0.213,0.832,0.213h4.571c0.253,0,0.457,0.23,0.457,0.489S165.046,7,164.793,7z
		"/>
	<path fill="#FF6319" d="M156,9h-5.261c-0.264,0-0.478-0.235-0.478-0.5s0.214-0.5,0.478-0.5H156c0.264,0,0.478,0.235,0.478,0.5
		S156.265,9,156,9z"/>
	<path fill="#FF6319" d="M161.261,11h-10.522c-0.264,0-0.478-0.235-0.478-0.5s0.214-0.5,0.478-0.5h10.522
		c0.264,0,0.478,0.235,0.478,0.5S161.525,11,161.261,11z"/>
	<path fill="#FF6319" d="M161.261,13h-10.522c-0.264,0-0.478-0.235-0.478-0.5c0-0.264,0.214-0.5,0.478-0.5h10.522
		c0.264,0,0.478,0.236,0.478,0.5C161.739,12.765,161.525,13,161.261,13z"/>
	<path fill="#FF6319" d="M161.261,16h-10.522c-0.264,0-0.478-0.235-0.478-0.5s0.214-0.5,0.478-0.5h10.522
		c0.264,0,0.478,0.235,0.478,0.5S161.525,16,161.261,16z"/>
	<path fill="#FF6319" d="M161.261,18h-10.522c-0.264,0-0.478-0.235-0.478-0.5s0.214-0.5,0.478-0.5h10.522
		c0.264,0,0.478,0.235,0.478,0.5S161.525,18,161.261,18z"/>
</g>
</svg>
