<?xml version="1.0" encoding="utf-8"?>
<!-- Generator: Adobe Illustrator 16.0.0, SVG Export Plug-In . SVG Version: 6.00 Build 0)  -->
<!DOCTYPE svg PUBLIC "-//W3C//DTD SVG 1.1//EN" "http://www.w3.org/Graphics/SVG/1.1/DTD/svg11.dtd">
<svg version="1.1" id="Capa_1" xmlns="http://www.w3.org/2000/svg" xmlns:xlink="http://www.w3.org/1999/xlink" x="0px" y="0px"
	 width="242.942px" height="54px" viewBox="0 0 242.942 54" enable-background="new 0 0 242.942 54" xml:space="preserve">
<g>
	<path fill="#D80000" d="M-0.126,9.877h18.423c6.126,0,10.003,4.258,10.003,9.426c0,4.021-1.626,7.036-5.408,8.567v0.095
		c3.686,0.958,4.738,4.547,4.978,7.992c0.145,2.153,0.097,6.175,1.437,8.088h-7.514c-0.911-2.153-0.814-5.456-1.196-8.184
		c-0.527-3.589-1.915-5.168-5.695-5.168H7.387v13.352h-7.513V9.877z M7.387,25.333h8.23c3.352,0,5.169-1.436,5.169-4.881
		c0-3.303-1.817-4.738-5.169-4.738h-8.23V25.333z"/>
	<polygon fill="#D80000" points="34.428,9.877 59.981,9.877 59.981,16.192 41.94,16.192 41.94,23.516 58.499,23.516 58.499,29.354 
		41.94,29.354 41.94,37.729 60.364,37.729 60.364,44.045 34.428,44.045 	"/>
	<path fill="#481273" d="M93.147,31.698c0,8.615-4.929,13.16-13.447,13.16c-8.806,0-14.022-4.067-14.022-13.16V9.877h4.548v21.821
		c0,6.03,3.445,9.332,9.475,9.332c5.742,0,8.901-3.302,8.901-9.332V9.877h4.546V31.698z"/>
	<polygon fill="#481273" points="100.376,9.877 105.21,9.877 123.203,37.584 123.299,37.584 123.299,9.877 127.605,9.877 
		127.605,44.045 122.629,44.045 104.779,16.623 104.683,16.623 104.683,44.045 100.376,44.045 	"/>
	<rect x="135.169" y="9.875" fill="#369443" width="4.545" height="34.17"/>
	<path fill="#369443" d="M147.373,9.877h11.723c10.528,0,16.416,5.263,16.416,16.27c0,11.438-5.026,17.898-16.416,17.898h-11.723
		V9.877z M151.918,40.217h7.56c3.111,0,11.487-0.861,11.487-13.447c0-8.136-3.016-13.065-11.39-13.065h-7.657V40.217z"/>
	<path fill="#001C85" d="M195.515,9.062c10.864,0,16.368,8.614,16.368,17.898c0,9.283-5.504,17.897-16.368,17.897
		c-10.862,0-16.366-8.614-16.366-17.897C179.148,17.677,184.652,9.062,195.515,9.062 M195.515,41.03
		c8.328,0,11.821-7.179,11.821-14.069c0-6.893-3.493-14.07-11.821-14.07c-8.326,0-11.819,7.178-11.819,14.07
		C183.695,33.852,187.188,41.03,195.515,41.03"/>
	<path fill="#001C85" d="M237.201,19.877c-0.526-4.881-3.782-6.986-8.471-6.986c-3.828,0-7.658,1.388-7.658,5.839
		c0,4.211,5.457,4.833,10.96,6.076c5.455,1.245,10.91,3.159,10.91,9.86c0,7.273-7.13,10.192-13.352,10.192
		c-7.657,0-14.117-3.731-14.117-12.06h4.309c0,5.744,4.783,8.231,9.952,8.231c4.117,0,8.664-1.292,8.664-6.221
		c0-4.69-5.458-5.505-10.913-6.701c-5.456-1.195-10.959-2.775-10.959-9.044c0-6.939,6.174-10.002,12.396-10.002
		c6.986,0,12.299,3.301,12.585,10.814H237.201z"/>
	<rect x="-0.126" y="49.218" fill="#EC8213" width="34.554" height="4.782"/>
	<rect fill="#EC8213" width="60.364" height="5.04"/>
</g>
</svg>
