<?xml version="1.0" encoding="utf-8"?>
<!-- Generator: Adobe Illustrator 16.0.0, SVG Export Plug-In . SVG Version: 6.00 Build 0)  -->
<!DOCTYPE svg PUBLIC "-//W3C//DTD SVG 1.1//EN" "http://www.w3.org/Graphics/SVG/1.1/DTD/svg11.dtd">
<svg version="1.1" id="Capa_1" xmlns="http://www.w3.org/2000/svg" xmlns:xlink="http://www.w3.org/1999/xlink" x="0px" y="0px"
	 width="100px" height="100px" viewBox="0 0 100 100" enable-background="new 0 0 100 100" xml:space="preserve">
<g>
	<path fill="#481273" d="M49.999,100C22.431,100,0,77.57,0,50C0,22.43,22.431,0,49.999,0C77.569,0,100,22.43,100,50
		C100,77.57,77.569,100,49.999,100"/>
	<path fill="#D80000" d="M49.999,4.717C25.031,4.717,4.716,25.031,4.716,50c0,24.971,20.315,45.282,45.283,45.282
		c24.97,0,45.284-20.312,45.284-45.282C95.283,25.031,74.969,4.717,49.999,4.717"/>
	<g>
		<defs>
			<path id="SVGID_1_" d="M4.716,50.001c0,24.967,20.315,45.281,45.282,45.281c24.97,0,45.285-20.314,45.285-45.281
				c0-24.97-20.315-45.285-45.285-45.285C25.031,4.716,4.716,25.032,4.716,50.001"/>
		</defs>
		<clipPath id="SVGID_2_">
			<use xlink:href="#SVGID_1_"  overflow="visible"/>
		</clipPath>
		<polygon clip-path="url(#SVGID_2_)" fill="#C4000F" points="8.643,99.05 -4.987,77.308 24.027,35.295 25.284,63.862 
			30.479,64.638 		"/>
		<polygon clip-path="url(#SVGID_2_)" fill="#C4000F" points="27.357,99.585 20.17,92.081 8.642,88.563 28.971,51.649 
			41.192,51.649 43.997,64.398 49.301,64.638 		"/>
		<polygon clip-path="url(#SVGID_2_)" fill="#C4000F" points="53.698,35.295 21.583,94.622 49.142,105.718 75.972,64.638 
			75.972,59.213 58.428,58.763 58.428,35.295 		"/>
	</g>
	<g>
		<polygon fill="#C4000F" points="73.901,32.103 22.362,32.103 24.147,30.049 75.944,30.049 		"/>
		<rect x="24.137" y="25.72" fill="#EC8213" width="51.835" height="4.331"/>
		<path fill="#FFFFFF" d="M24.027,35.295h15.822c5.26,0,8.589,3.658,8.589,8.095c0,3.453-1.397,6.042-4.645,7.357v0.082
			c3.165,0.821,4.07,3.905,4.275,6.863c0.121,1.848,0.082,5.302,1.232,6.946h-6.453c-0.781-1.853-0.698-4.687-1.025-7.029
			c-0.453-3.082-1.645-4.438-4.891-4.438h-6.454v11.467h-6.451V35.295z M30.478,48.57h7.069c2.877,0,4.439-1.234,4.439-4.192
			c0-2.836-1.562-4.068-4.439-4.068h-7.069V48.57z"/>
		<polygon fill="#FFFFFF" points="53.698,35.295 75.644,35.295 75.644,40.72 60.151,40.72 60.151,47.007 74.37,47.007 74.37,52.022 
			60.151,52.022 60.151,59.213 75.972,59.213 75.972,64.638 53.698,64.638 		"/>
		<rect x="24.028" y="69.08" fill="#EC8213" width="29.67" height="4.107"/>
		<polygon fill="#D80000" points="51.425,75.239 21.754,75.239 24.027,73.185 53.698,73.185 		"/>
	</g>
</g>
</svg>
